<?xml version="1.0" standalone="no"?>
<!DOCTYPE svg PUBLIC "-//W3C//DTD SVG 20010904//EN"
 "http://www.w3.org/TR/2001/REC-SVG-20010904/DTD/svg10.dtd">
<svg version="1.0" xmlns="http://www.w3.org/2000/svg"
 width="20px" height="20px" viewBox="0 0 20 20"
 preserveAspectRatio="xMidYMid meet">

<g transform="translate(0.000000,512.000000) scale(0.100000,-0.100000)"
fill="#000000" stroke="none">
<path d="M1433 4975 c-179 -49 -288 -173 -313 -359 -23 -162 -114 -418 -186
-520 -204 -290 -277 -408 -389 -637 -226 -461 -367 -977 -415 -1514 -17 -184
-14 -608 4 -794 17 -172 27 -194 80 -189 29 3 36 12 93 127 78 155 203 447
280 654 50 137 59 154 66 130 15 -58 117 -785 127 -913 6 -74 15 -151 20 -170
15 -55 65 -126 112 -159 70 -48 80 -60 72 -84 -4 -12 -18 -30 -33 -42 -48 -37
-82 -80 -112 -142 -25 -50 -29 -65 -20 -82 15 -27 59 -28 136 -1 58 20 75 19
75 -3 0 -7 13 -40 30 -75 27 -57 32 -63 57 -60 30 3 73 58 93 119 l12 37 54
-25 c99 -45 154 -41 154 12 0 38 -68 161 -110 199 -54 49 -54 69 3 59 56 -11
269 -10 335 0 66 11 69 -3 11 -58 -46 -45 -81 -101 -104 -164 -30 -86 18 -103
138 -48 l54 25 39 -77 c33 -64 43 -77 66 -79 31 -4 55 27 85 108 9 25 18 47
19 49 2 1 30 -6 63 -18 95 -33 141 -25 141 22 0 38 -64 139 -117 186 -43 38
-53 52 -53 79 0 19 7 38 18 46 9 8 31 26 49 41 18 14 46 54 63 88 27 56 31 79
45 238 21 244 95 862 102 855 3 -2 28 -76 58 -163 93 -279 266 -695 298 -715
25 -16 66 -8 81 15 8 12 24 85 35 162 101 695 -3 1453 -290 2128 -137 321
-264 525 -433 692 -45 44 -95 105 -111 135 -26 48 -30 64 -29 135 0 99 22 173
72 250 81 125 206 221 382 292 46 18 88 39 92 46 16 25 8 66 -15 81 -39 26
-240 39 -404 26 l-144 -11 -66 26 c-132 53 -267 68 -370 40z m22 -190 c57 -56
15 -155 -65 -155 -54 0 -90 36 -90 90 0 81 98 123 155 65z m410 -1038 c63 -32
101 -64 139 -120 31 -46 39 -72 70 -232 72 -369 112 -687 125 -971 8 -176 7
-185 -35 -504 -57 -430 -91 -718 -108 -922 -17 -191 -31 -231 -97 -275 -34
-22 -56 -28 -137 -34 -53 -4 -132 -15 -175 -23 -107 -22 -235 -20 -352 4 -53
11 -131 20 -172 20 -48 0 -85 6 -106 16 -85 43 -103 84 -117 261 -6 76 -31
271 -55 433 -133 895 -120 774 -119 1080 1 358 29 618 100 928 20 88 34 124
64 170 87 129 141 172 217 172 42 0 82 -22 152 -80 121 -102 225 -94 352 27
90 86 158 99 254 50z m494 -728 c95 -238 155 -465 210 -789 50 -292 82 -650
80 -875 -2 -160 -6 -157 -91 57 -159 401 -214 606 -228 848 -26 437 -46 632
-95 921 -14 81 -25 151 -24 155 1 16 97 -188 148 -317z m-1709 110 c-28 -157
-43 -371 -45 -655 l-2 -302 -33 -108 c-44 -149 -144 -416 -229 -611 -92 -215
-93 -216 -86 -118 3 44 12 202 20 350 22 412 54 612 142 895 64 209 227 620
239 607 2 -2 0 -28 -6 -58z"/>
<path d="M3860 3714 c-14 -3 -54 -15 -90 -26 -57 -19 -89 -22 -260 -22 -139
-1 -201 -5 -217 -14 -26 -15 -40 -58 -26 -80 11 -18 9 -17 128 -73 72 -33 104
-56 161 -113 82 -82 114 -150 114 -242 0 -74 -25 -119 -115 -210 -85 -85 -145
-173 -221 -317 -162 -312 -276 -703 -314 -1080 -27 -265 4 -761 51 -808 24
-24 51 -24 76 -1 31 26 201 434 228 545 4 15 10 27 14 27 7 0 51 -361 71 -576
12 -128 30 -173 91 -228 27 -24 49 -50 49 -58 0 -7 -18 -30 -40 -50 -43 -41
-80 -105 -80 -138 0 -35 24 -36 125 -5 17 5 24 -4 47 -55 35 -80 58 -80 100 1
l28 57 57 -23 c61 -25 93 -20 93 13 -1 30 -37 99 -75 141 l-38 42 44 -8 c56
-10 205 -10 243 0 l29 8 -41 -46 c-44 -50 -78 -125 -69 -150 8 -21 53 -19 104
5 l42 19 28 -57 c21 -41 35 -58 51 -60 20 -3 27 6 50 58 23 51 30 60 47 55
101 -31 125 -30 125 5 0 33 -35 91 -79 135 -47 45 -50 58 -18 72 40 19 87 65
109 106 15 30 24 80 34 181 13 130 80 605 87 612 1 1 32 -73 69 -165 76 -190
184 -428 206 -453 22 -26 68 -23 86 5 35 54 51 532 27 772 -59 562 -253 1083
-558 1493 -73 98 -133 242 -158 377 -9 50 -24 110 -32 135 -21 62 -113 151
-178 174 -52 18 -161 28 -205 20z m19 -957 c109 -102 171 -103 295 -6 79 63
147 49 214 -45 55 -76 111 -368 133 -686 14 -221 7 -320 -57 -760 -31 -206
-60 -429 -66 -495 -16 -183 -34 -204 -182 -216 -50 -4 -124 -13 -164 -19 -56
-10 -88 -10 -145 -1 -39 7 -109 16 -155 20 -93 9 -126 26 -154 82 -10 19 -18
54 -18 79 0 56 -40 411 -80 707 -32 237 -37 365 -20 548 15 157 47 377 81 548
16 81 29 156 29 165 0 23 76 97 120 117 60 26 113 15 169 -38z m-473 -423
c-26 -150 -45 -342 -56 -545 -12 -249 -46 -390 -171 -709 -28 -74 -34 -82 -40
-60 -12 44 -10 212 6 368 25 246 72 493 130 688 34 112 134 359 142 351 2 -3
-3 -45 -11 -93z m1278 -171 c132 -335 175 -556 191 -993 5 -141 5 -153 -9
-129 -31 54 -118 278 -172 443 l-55 171 6 95 c7 91 -7 392 -24 513 -4 32 -4
54 0 50 4 -4 32 -72 63 -150z"/>
</g>
</svg>
